<svg width="12" height="13" viewBox="0 0 12 13" fill="none" xmlns="http://www.w3.org/2000/svg">
<path d="M1 12.3792C1 12.3792 0 12.3792 0 11.3792C0 10.3792 1 7.37915 6 7.37915C11 7.37915 12 10.3792 12 11.3792C12 12.3792 11 12.3792 11 12.3792H1ZM6 6.37915C6.79565 6.37915 7.55871 6.06308 8.12132 5.50047C8.68393 4.93786 9 4.1748 9 3.37915C9 2.5835 8.68393 1.82044 8.12132 1.25783C7.55871 0.695221 6.79565 0.37915 6 0.37915C5.20435 0.37915 4.44129 0.695221 3.87868 1.25783C3.31607 1.82044 3 2.5835 3 3.37915C3 4.1748 3.31607 4.93786 3.87868 5.50047C4.44129 6.06308 5.20435 6.37915 6 6.37915Z" fill="#333333"/>
</svg>
